<svg width="170" height="70" viewBox="0 0 170 70" fill="none" xmlns="http://www.w3.org/2000/svg">
<rect width="170" height="70" rx="10" fill="white"/>
<path d="M58.4338 29.9487L55.2065 18.3124H57.0531L59.3201 27.3237H59.4281L61.786 18.3124H63.6156L65.9735 27.3294H66.0815L68.3429 18.3124H70.1951L66.9622 29.9487H65.1951L62.7463 21.2328H62.6554L60.2065 29.9487H58.4338ZM71.6596 29.9487V21.2215H73.3585V29.9487H71.6596ZM72.5176 19.8749C72.2221 19.8749 71.9683 19.7764 71.7562 19.5794C71.5479 19.3787 71.4437 19.14 71.4437 18.8635C71.4437 18.5832 71.5479 18.3446 71.7562 18.1476C71.9683 17.9468 72.2221 17.8465 72.5176 17.8465C72.813 17.8465 73.0649 17.9468 73.2733 18.1476C73.4854 18.3446 73.5914 18.5832 73.5914 18.8635C73.5914 19.14 73.4854 19.3787 73.2733 19.5794C73.0649 19.7764 72.813 19.8749 72.5176 19.8749ZM79.7179 21.2215V22.5851H74.9508V21.2215H79.7179ZM76.2292 19.1305H77.9281V27.3862C77.9281 27.7158 77.9773 27.9639 78.0758 28.1305C78.1743 28.2934 78.3012 28.4052 78.4565 28.4658C78.6156 28.5226 78.7879 28.551 78.9735 28.551C79.1099 28.551 79.2292 28.5415 79.3315 28.5226C79.4338 28.5037 79.5133 28.4885 79.5701 28.4771L79.877 29.8805C79.7785 29.9184 79.6383 29.9563 79.4565 29.9942C79.2747 30.0359 79.0474 30.0586 78.7747 30.0624C78.3277 30.0699 77.911 29.9904 77.5247 29.8237C77.1383 29.6571 76.8258 29.3995 76.5872 29.051C76.3485 28.7025 76.2292 28.265 76.2292 27.7385V19.1305ZM83.4835 24.7669V29.9487H81.7846V18.3124H83.4608V22.6419H83.5687C83.7733 22.1722 84.0858 21.7991 84.5062 21.5226C84.9267 21.2461 85.4759 21.1078 86.1539 21.1078C86.7524 21.1078 87.2752 21.2309 87.7221 21.4771C88.1729 21.7234 88.5214 22.0908 88.7676 22.5794C89.0176 23.0643 89.1426 23.6703 89.1426 24.3976V29.9487H87.4437V24.6021C87.4437 23.962 87.2789 23.4658 86.9494 23.1135C86.6199 22.7574 86.1615 22.5794 85.5744 22.5794C85.1729 22.5794 84.813 22.6646 84.4949 22.8351C84.1805 23.0055 83.9324 23.2555 83.7505 23.5851C83.5725 23.9109 83.4835 24.3048 83.4835 24.7669ZM99.4054 30.1249C98.5455 30.1249 97.805 29.9412 97.1838 29.5737C96.5663 29.2025 96.0891 28.6817 95.752 28.0112C95.4186 27.337 95.252 26.5472 95.252 25.6419C95.252 24.748 95.4186 23.9601 95.752 23.2783C96.0891 22.5965 96.5588 22.0643 97.161 21.6817C97.7671 21.2991 98.4754 21.1078 99.286 21.1078C99.7785 21.1078 100.256 21.1893 100.718 21.3521C101.18 21.515 101.595 21.7707 101.962 22.1192C102.33 22.4677 102.619 22.9203 102.831 23.4771C103.044 24.0302 103.15 24.7025 103.15 25.4942V26.0965H96.2122V24.8237H101.485C101.485 24.3768 101.394 23.9809 101.212 23.6362C101.03 23.2877 100.775 23.0131 100.445 22.8124C100.119 22.6116 99.7368 22.5112 99.2974 22.5112C98.8201 22.5112 98.4035 22.6287 98.0474 22.8635C97.6951 23.0946 97.4224 23.3976 97.2292 23.7726C97.0398 24.1438 96.9451 24.5472 96.9451 24.9828V25.9771C96.9451 26.5605 97.0474 27.0567 97.252 27.4658C97.4603 27.8749 97.7501 28.1874 98.1213 28.4033C98.4925 28.6154 98.9262 28.7215 99.4224 28.7215C99.7444 28.7215 100.038 28.676 100.303 28.5851C100.568 28.4904 100.797 28.3502 100.991 28.1646C101.184 27.979 101.331 27.7499 101.434 27.4771L103.042 27.7669C102.913 28.2404 102.682 28.6552 102.349 29.0112C102.019 29.3635 101.604 29.6381 101.104 29.8351C100.608 30.0283 100.042 30.1249 99.4054 30.1249ZM106.172 21.2215L108.099 24.6192L110.042 21.2215H111.9L109.178 25.5851L111.922 29.9487H110.064L108.099 26.6874L106.138 29.9487H104.275L106.991 25.5851L104.309 21.2215H106.172ZM113.644 33.2215V21.2215H115.303V22.6362H115.445C115.544 22.4544 115.686 22.2442 115.871 22.0055C116.057 21.7669 116.314 21.5586 116.644 21.3805C116.974 21.1987 117.409 21.1078 117.951 21.1078C118.655 21.1078 119.284 21.2859 119.837 21.6419C120.39 21.998 120.824 22.5112 121.138 23.1817C121.456 23.8521 121.616 24.659 121.616 25.6021C121.616 26.5453 121.458 27.354 121.144 28.0283C120.83 28.6987 120.398 29.2158 119.849 29.5794C119.299 29.9393 118.672 30.1192 117.968 30.1192C117.438 30.1192 117.004 30.0302 116.667 29.8521C116.333 29.6741 116.072 29.4658 115.883 29.2271C115.693 28.9885 115.547 28.7764 115.445 28.5908H115.343V33.2215H113.644ZM115.309 25.5851C115.309 26.1987 115.398 26.7366 115.576 27.1987C115.754 27.6609 116.011 28.0226 116.349 28.284C116.686 28.5415 117.099 28.6703 117.587 28.6703C118.095 28.6703 118.519 28.5359 118.86 28.2669C119.201 27.9942 119.458 27.6249 119.633 27.159C119.811 26.693 119.9 26.1684 119.9 25.5851C119.9 25.0093 119.813 24.4923 119.638 24.034C119.468 23.5756 119.21 23.2139 118.866 22.9487C118.525 22.6836 118.099 22.551 117.587 22.551C117.095 22.551 116.678 22.6779 116.337 22.9317C116 23.1855 115.744 23.5396 115.57 23.9942C115.396 24.4487 115.309 24.979 115.309 25.5851ZM127.28 30.1249C126.421 30.1249 125.68 29.9412 125.059 29.5737C124.441 29.2025 123.964 28.6817 123.627 28.0112C123.294 27.337 123.127 26.5472 123.127 25.6419C123.127 24.748 123.294 23.9601 123.627 23.2783C123.964 22.5965 124.434 22.0643 125.036 21.6817C125.642 21.2991 126.35 21.1078 127.161 21.1078C127.653 21.1078 128.131 21.1893 128.593 21.3521C129.055 21.515 129.47 21.7707 129.837 22.1192C130.205 22.4677 130.494 22.9203 130.706 23.4771C130.919 24.0302 131.025 24.7025 131.025 25.4942V26.0965H124.087V24.8237H129.36C129.36 24.3768 129.269 23.9809 129.087 23.6362C128.905 23.2877 128.65 23.0131 128.32 22.8124C127.994 22.6116 127.612 22.5112 127.172 22.5112C126.695 22.5112 126.278 22.6287 125.922 22.8635C125.57 23.0946 125.297 23.3976 125.104 23.7726C124.915 24.1438 124.82 24.5472 124.82 24.9828V25.9771C124.82 26.5605 124.922 27.0567 125.127 27.4658C125.335 27.8749 125.625 28.1874 125.996 28.4033C126.367 28.6154 126.801 28.7215 127.297 28.7215C127.619 28.7215 127.913 28.676 128.178 28.5851C128.443 28.4904 128.672 28.3502 128.866 28.1646C129.059 27.979 129.206 27.7499 129.309 27.4771L130.917 27.7669C130.788 28.2404 130.557 28.6552 130.224 29.0112C129.894 29.3635 129.479 29.6381 128.979 29.8351C128.483 30.0283 127.917 30.1249 127.28 30.1249ZM132.91 29.9487V21.2215H134.552V22.6078H134.643C134.802 22.1381 135.082 21.7688 135.483 21.4999C135.889 21.2271 136.347 21.0908 136.858 21.0908C136.965 21.0908 137.09 21.0946 137.233 21.1021C137.381 21.1097 137.497 21.1192 137.58 21.1305V22.7555C137.512 22.7366 137.391 22.7158 137.216 22.693C137.042 22.6665 136.868 22.6533 136.694 22.6533C136.292 22.6533 135.934 22.7385 135.62 22.909C135.309 23.0756 135.063 23.3086 134.881 23.6078C134.699 23.9033 134.608 24.2404 134.608 24.6192V29.9487H132.91ZM143.64 21.2215V22.5851H138.873V21.2215H143.64ZM140.151 19.1305H141.85V27.3862C141.85 27.7158 141.899 27.9639 141.998 28.1305C142.096 28.2934 142.223 28.4052 142.378 28.4658C142.537 28.5226 142.71 28.551 142.895 28.551C143.032 28.551 143.151 28.5415 143.253 28.5226C143.356 28.5037 143.435 28.4885 143.492 28.4771L143.799 29.8805C143.7 29.9184 143.56 29.9563 143.378 29.9942C143.197 30.0359 142.969 30.0586 142.697 30.0624C142.25 30.0699 141.833 29.9904 141.447 29.8237C141.06 29.6571 140.748 29.3995 140.509 29.051C140.27 28.7025 140.151 28.265 140.151 27.7385V19.1305ZM59.6781 52.4033C58.9849 52.4033 58.3883 52.3124 57.8883 52.1305C57.3921 51.9487 56.9868 51.7082 56.6724 51.409C56.358 51.1097 56.1232 50.7821 55.9679 50.426L57.4281 49.8237C57.5304 49.9904 57.6667 50.1665 57.8372 50.3521C58.0114 50.5415 58.2463 50.7025 58.5417 50.8351C58.841 50.9677 59.2254 51.034 59.6951 51.034C60.3391 51.034 60.8713 50.8768 61.2917 50.5624C61.7122 50.2518 61.9224 49.7555 61.9224 49.0737V47.3578H61.8145C61.7122 47.5434 61.5645 47.7499 61.3713 47.9771C61.1819 48.2044 60.9205 48.4014 60.5872 48.568C60.2538 48.7347 59.8201 48.818 59.286 48.818C58.5967 48.818 57.9754 48.6571 57.4224 48.3351C56.8732 48.0093 56.4376 47.5302 56.1156 46.8976C55.7974 46.2612 55.6383 45.479 55.6383 44.551C55.6383 43.623 55.7955 42.8275 56.1099 42.1646C56.4281 41.5018 56.8637 40.9942 57.4167 40.6419C57.9698 40.2859 58.5967 40.1078 59.2974 40.1078C59.8391 40.1078 60.2766 40.1987 60.6099 40.3805C60.9432 40.5586 61.2027 40.7669 61.3883 41.0055C61.5777 41.2442 61.7235 41.4544 61.8258 41.6362H61.9508V40.2215H63.6156V49.1419C63.6156 49.8919 63.4413 50.5074 63.0929 50.9885C62.7444 51.4696 62.2728 51.8256 61.6781 52.0567C61.0872 52.2877 60.4205 52.4033 59.6781 52.4033ZM59.661 47.409C60.1497 47.409 60.5626 47.2953 60.8997 47.068C61.2406 46.837 61.4982 46.5074 61.6724 46.0794C61.8504 45.6476 61.9395 45.1305 61.9395 44.5283C61.9395 43.9412 61.8523 43.4241 61.6781 42.9771C61.5038 42.5302 61.2482 42.1817 60.911 41.9317C60.5739 41.6779 60.1573 41.551 59.661 41.551C59.1497 41.551 58.7235 41.6836 58.3826 41.9487C58.0417 42.2101 57.7842 42.5662 57.6099 43.0169C57.4395 43.4677 57.3542 43.9715 57.3542 44.5283C57.3542 45.1002 57.4413 45.6021 57.6156 46.034C57.7898 46.4658 58.0474 46.8029 58.3883 47.0453C58.733 47.2877 59.1573 47.409 59.661 47.409ZM71.4224 45.3294V40.2215H73.127V48.9487H71.4565V47.4374H71.3656C71.1648 47.9033 70.8429 48.2915 70.3997 48.6021C69.9603 48.909 69.4129 49.0624 68.7576 49.0624C68.197 49.0624 67.7008 48.9393 67.269 48.693C66.841 48.443 66.5038 48.0737 66.2576 47.5851C66.0152 47.0965 65.894 46.4923 65.894 45.7726V40.2215H67.5929V45.568C67.5929 46.1627 67.7576 46.6362 68.0872 46.9885C68.4167 47.3408 68.8448 47.5169 69.3713 47.5169C69.6895 47.5169 70.0057 47.4374 70.3201 47.2783C70.6383 47.1192 70.9016 46.8787 71.1099 46.5567C71.322 46.2347 71.4262 45.8256 71.4224 45.3294ZM75.4096 48.9487V40.2215H77.1085V48.9487H75.4096ZM76.2676 38.8749C75.9721 38.8749 75.7183 38.7764 75.5062 38.5794C75.2979 38.3787 75.1937 38.14 75.1937 37.8635C75.1937 37.5832 75.2979 37.3446 75.5062 37.1476C75.7183 36.9468 75.9721 36.8465 76.2676 36.8465C76.563 36.8465 76.8149 36.9468 77.0233 37.1476C77.2354 37.3446 77.3414 37.5832 77.3414 37.8635C77.3414 38.14 77.2354 38.3787 77.0233 38.5794C76.8149 38.7764 76.563 38.8749 76.2676 38.8749ZM82.661 49.1192C81.9565 49.1192 81.3277 48.9393 80.7747 48.5794C80.2254 48.2158 79.7936 47.6987 79.4792 47.0283C79.1686 46.354 79.0133 45.5453 79.0133 44.6021C79.0133 43.659 79.1705 42.8521 79.4849 42.1817C79.8031 41.5112 80.2387 40.998 80.7917 40.6419C81.3448 40.2859 81.9717 40.1078 82.6724 40.1078C83.2141 40.1078 83.6497 40.1987 83.9792 40.3805C84.3126 40.5586 84.5701 40.7669 84.752 41.0055C84.9376 41.2442 85.0815 41.4544 85.1838 41.6362H85.286V37.3124H86.9849V48.9487H85.3258V47.5908H85.1838C85.0815 47.7764 84.9338 47.9885 84.7406 48.2271C84.5512 48.4658 84.2898 48.6741 83.9565 48.8521C83.6232 49.0302 83.1913 49.1192 82.661 49.1192ZM83.036 47.6703C83.5247 47.6703 83.9376 47.5415 84.2747 47.284C84.6156 47.0226 84.8732 46.6609 85.0474 46.1987C85.2254 45.7366 85.3145 45.1987 85.3145 44.5851C85.3145 43.979 85.2273 43.4487 85.0531 42.9942C84.8788 42.5396 84.6232 42.1855 84.286 41.9317C83.9489 41.6779 83.5323 41.551 83.036 41.551C82.5247 41.551 82.0985 41.6836 81.7576 41.9487C81.4167 42.2139 81.1592 42.5756 80.9849 43.034C80.8145 43.4923 80.7292 44.0093 80.7292 44.5851C80.7292 45.1684 80.8163 45.693 80.9906 46.159C81.1648 46.6249 81.4224 46.9942 81.7633 47.2669C82.108 47.5359 82.5323 47.6703 83.036 47.6703ZM91.9494 49.1419C91.3964 49.1419 90.8964 49.0396 90.4494 48.8351C90.0024 48.6268 89.6483 48.3256 89.3869 47.9317C89.1293 47.5377 89.0005 47.0548 89.0005 46.4828C89.0005 45.9904 89.0952 45.5851 89.2846 45.2669C89.474 44.9487 89.7297 44.6968 90.0517 44.5112C90.3736 44.3256 90.7335 44.1855 91.1312 44.0908C91.5289 43.9961 91.9342 43.9241 92.3471 43.8749C92.8699 43.8143 93.2941 43.765 93.6199 43.7271C93.9456 43.6855 94.1824 43.6192 94.3301 43.5283C94.4778 43.4374 94.5517 43.2896 94.5517 43.0851V43.0453C94.5517 42.5491 94.4115 42.1646 94.1312 41.8919C93.8547 41.6192 93.4418 41.4828 92.8926 41.4828C92.3206 41.4828 91.8699 41.6097 91.5403 41.8635C91.2145 42.1135 90.9892 42.3919 90.8642 42.6987L89.2676 42.3351C89.457 41.8048 89.7335 41.3768 90.0971 41.051C90.4645 40.7215 90.8869 40.4828 91.3642 40.3351C91.8414 40.1836 92.3433 40.1078 92.8699 40.1078C93.2183 40.1078 93.5877 40.1495 93.9778 40.2328C94.3717 40.3124 94.7392 40.4601 95.0801 40.676C95.4248 40.8919 95.707 41.2006 95.9267 41.6021C96.1464 41.9999 96.2562 42.5169 96.2562 43.1533V48.9487H94.5971V47.7555H94.5289C94.4191 47.9752 94.2543 48.1912 94.0346 48.4033C93.8149 48.6154 93.5327 48.7915 93.188 48.9317C92.8433 49.0718 92.4305 49.1419 91.9494 49.1419ZM92.3187 47.7783C92.7884 47.7783 93.1899 47.6855 93.5233 47.4999C93.8604 47.3143 94.1161 47.0718 94.2903 46.7726C94.4683 46.4696 94.5574 46.1457 94.5574 45.801V44.676C94.4967 44.7366 94.3793 44.7934 94.2051 44.8465C94.0346 44.8957 93.8395 44.9393 93.6199 44.9771C93.4002 45.0112 93.1861 45.0434 92.9778 45.0737C92.7695 45.1002 92.5952 45.123 92.4551 45.1419C92.1255 45.1836 91.8244 45.2537 91.5517 45.3521C91.2827 45.4506 91.0668 45.5927 90.9039 45.7783C90.7449 45.9601 90.6653 46.2025 90.6653 46.5055C90.6653 46.926 90.8206 47.2442 91.1312 47.4601C91.4418 47.6722 91.8377 47.7783 92.3187 47.7783ZM100.218 43.7669V48.9487H98.519V40.2215H100.15V41.6419H100.258C100.458 41.1798 100.773 40.8086 101.201 40.5283C101.633 40.248 102.176 40.1078 102.831 40.1078C103.426 40.1078 103.947 40.2328 104.394 40.4828C104.841 40.729 105.188 41.0965 105.434 41.5851C105.68 42.0737 105.803 42.6779 105.803 43.3976V48.9487H104.104V43.6021C104.104 42.9696 103.939 42.4752 103.61 42.1192C103.28 41.7593 102.828 41.5794 102.252 41.5794C101.858 41.5794 101.508 41.6646 101.201 41.8351C100.898 42.0055 100.657 42.2555 100.479 42.5851C100.305 42.9109 100.218 43.3048 100.218 43.7669ZM111.758 49.1249C110.913 49.1249 110.186 48.9336 109.576 48.551C108.97 48.1646 108.504 47.6324 108.178 46.9544C107.852 46.2764 107.689 45.4999 107.689 44.6249C107.689 43.7385 107.856 42.9563 108.189 42.2783C108.523 41.5965 108.992 41.0643 109.599 40.6817C110.205 40.2991 110.919 40.1078 111.741 40.1078C112.403 40.1078 112.994 40.2309 113.513 40.4771C114.032 40.7196 114.451 41.0605 114.769 41.4999C115.091 41.9393 115.282 42.4525 115.343 43.0396H113.689C113.599 42.6305 113.39 42.2783 113.064 41.9828C112.742 41.6874 112.311 41.5396 111.769 41.5396C111.296 41.5396 110.881 41.6646 110.525 41.9146C110.172 42.1609 109.898 42.5131 109.701 42.9715C109.504 43.426 109.405 43.9639 109.405 44.5851C109.405 45.2215 109.502 45.7707 109.695 46.2328C109.888 46.6949 110.161 47.0529 110.513 47.3067C110.869 47.5605 111.288 47.6874 111.769 47.6874C112.091 47.6874 112.383 47.6287 112.644 47.5112C112.909 47.39 113.131 47.2177 113.309 46.9942C113.491 46.7707 113.617 46.5018 113.689 46.1874H115.343C115.282 46.7518 115.099 47.2555 114.792 47.6987C114.485 48.1419 114.074 48.4904 113.559 48.7442C113.047 48.998 112.447 49.1249 111.758 49.1249ZM120.921 49.1249C120.061 49.1249 119.321 48.9412 118.699 48.5737C118.082 48.2025 117.605 47.6817 117.268 47.0112C116.934 46.337 116.768 45.5472 116.768 44.6419C116.768 43.748 116.934 42.9601 117.268 42.2783C117.605 41.5965 118.074 41.0643 118.677 40.6817C119.283 40.2991 119.991 40.1078 120.802 40.1078C121.294 40.1078 121.771 40.1893 122.233 40.3521C122.696 40.515 123.11 40.7707 123.478 41.1192C123.845 41.4677 124.135 41.9203 124.347 42.4771C124.559 43.0302 124.665 43.7025 124.665 44.4942V45.0965H117.728V43.8237H123.001C123.001 43.3768 122.91 42.9809 122.728 42.6362C122.546 42.2877 122.29 42.0131 121.961 41.8124C121.635 41.6116 121.252 41.5112 120.813 41.5112C120.336 41.5112 119.919 41.6287 119.563 41.8635C119.211 42.0946 118.938 42.3976 118.745 42.7726C118.555 43.1438 118.461 43.5472 118.461 43.9828V44.9771C118.461 45.5605 118.563 46.0567 118.768 46.4658C118.976 46.8749 119.266 47.1874 119.637 47.4033C120.008 47.6154 120.442 47.7215 120.938 47.7215C121.26 47.7215 121.554 47.676 121.819 47.5851C122.084 47.4904 122.313 47.3502 122.506 47.1646C122.699 46.979 122.847 46.7499 122.949 46.4771L124.557 46.7669C124.429 47.2404 124.198 47.6552 123.864 48.0112C123.535 48.3635 123.12 48.6381 122.62 48.8351C122.124 49.0283 121.557 49.1249 120.921 49.1249ZM127.67 49.0567C127.359 49.0567 127.092 48.9468 126.868 48.7271C126.645 48.5037 126.533 48.2347 126.533 47.9203C126.533 47.6097 126.645 47.3446 126.868 47.1249C127.092 46.9014 127.359 46.7896 127.67 46.7896C127.98 46.7896 128.247 46.9014 128.471 47.1249C128.694 47.3446 128.806 47.6097 128.806 47.9203C128.806 48.1287 128.753 48.3199 128.647 48.4942C128.545 48.6646 128.408 48.801 128.238 48.9033C128.067 49.0055 127.878 49.0567 127.67 49.0567Z" fill="black"/>
<path fill-rule="evenodd" clip-rule="evenodd" d="M29.0005 18C30.2396 18.0004 31.4507 18.3682 32.4808 19.0569C33.5108 19.7455 34.3136 20.7242 34.7875 21.869C35.2614 23.0139 35.3852 24.2736 35.1432 25.4888C34.9012 26.704 34.3044 27.8202 33.4281 28.6962C32.5518 29.5722 31.4355 30.1687 30.2202 30.4103C29.0049 30.6519 27.7452 30.5278 26.6005 30.0535C25.4558 29.5793 24.4774 28.7763 23.789 27.746C23.1007 26.7157 22.7332 25.5045 22.7332 24.2654C22.7345 22.6038 23.3953 21.0106 24.5704 19.8359C25.7455 18.6611 27.3389 18.0008 29.0005 18ZM29.2993 49.4024C29.2083 49.3505 29.1053 49.3231 29.0005 49.3231C28.8957 49.3231 28.7927 49.3505 28.7017 49.4024L24.0975 52L25.1451 46.8185C25.166 46.7152 25.1598 46.6083 25.1269 46.5082C25.0941 46.4081 25.0359 46.3182 24.9579 46.2474L21.0665 42.672L26.3186 42.0678C26.4227 42.0559 26.522 42.0171 26.6066 41.9552C26.6912 41.8932 26.7582 41.8103 26.8009 41.7146L29.0005 36.9067L31.2 41.7145C31.2428 41.8103 31.3098 41.8932 31.3944 41.9551C31.4789 42.017 31.5782 42.0558 31.6824 42.0677L36.9345 42.672L33.0431 46.2473C32.9651 46.3181 32.9068 46.408 32.874 46.5081C32.8412 46.6082 32.8349 46.7151 32.8559 46.8184L33.9034 52L29.2993 49.4024ZM22.4345 32.1512C20.8439 32.1527 19.3189 32.785 18.1939 33.9094C17.069 35.0338 16.4359 36.5584 16.4336 38.149V45.6348C16.4336 45.6943 16.4453 45.7533 16.4681 45.8083C16.4909 45.8632 16.5243 45.9132 16.5665 45.9552C16.6086 45.9972 16.6586 46.0305 16.7136 46.0532C16.7687 46.0759 16.8276 46.0875 16.8871 46.0873H22.9781L19.2559 42.6679C19.1693 42.589 19.1074 42.4868 19.0774 42.3736C19.0474 42.2604 19.0506 42.141 19.0866 42.0296C19.1227 41.9182 19.1901 41.8195 19.2808 41.7454C19.3714 41.6713 19.4815 41.6248 19.5979 41.6116L25.8363 40.8944L28.446 35.1844C28.4943 35.0779 28.5723 34.9875 28.6707 34.9241C28.769 34.8607 28.8835 34.827 29.0005 34.827C29.1175 34.827 29.232 34.8607 29.3304 34.9241C29.4287 34.9875 29.5067 35.0779 29.555 35.1844L32.1648 40.8944L38.4032 41.6116C38.5196 41.6249 38.6296 41.6713 38.7203 41.7454C38.8109 41.8196 38.8783 41.9182 38.9144 42.0296C38.9504 42.141 38.9537 42.2604 38.9237 42.3736C38.8937 42.4868 38.8317 42.5889 38.7452 42.6679L35.023 46.0873H41.1139C41.2339 46.087 41.3489 46.0393 41.4339 45.9545C41.5188 45.8698 41.5669 45.7548 41.5674 45.6348V38.149C41.5651 36.5584 40.9321 35.0338 39.8071 33.9094C38.6821 32.785 37.1571 32.1527 35.5666 32.1512H22.4345Z" fill="#54BD95"/>
</svg>
